<?xml version="1.0" standalone="no"?>
<!DOCTYPE svg PUBLIC "-//W3C//DTD SVG 20010904//EN"
 "http://www.w3.org/TR/2001/REC-SVG-20010904/DTD/svg10.dtd">
<svg version="1.0" xmlns="http://www.w3.org/2000/svg"
 width="1024.000000pt" height="1024.000000pt" viewBox="0 0 1024.000000 1024.000000"
 preserveAspectRatio="xMidYMid meet">

<g transform="translate(0.000000,1024.000000) scale(0.100000,-0.100000)"
fill="#000000" stroke="none">
<path d="M5070 7383 c-592 -56 -1059 -248 -1590 -651 -150 -114 -156 -120
-339 -286 -310 -282 -616 -636 -931 -1076 -141 -196 -168 -247 -156 -293 14
-56 279 -433 438 -622 110 -131 329 -340 435 -414 188 -132 403 -241 653 -330
l85 -30 -50 41 c-150 124 -348 360 -449 533 -148 255 -238 616 -221 885 9 146
24 225 65 350 63 194 161 362 318 550 114 136 178 194 122 110 -73 -108 -159
-316 -209 -501 -58 -216 -81 -623 -46 -820 62 -357 268 -704 569 -956 472
-397 1135 -515 1748 -311 177 59 312 129 474 248 341 252 541 584 610 1016 33
209 20 397 -38 564 -167 477 -581 788 -1083 815 l-110 6 91 -25 c199 -53 404
-184 543 -347 174 -205 267 -437 278 -694 12 -279 -51 -506 -199 -722 -68
-100 -233 -265 -324 -326 -294 -194 -636 -279 -1002 -249 -251 21 -417 64
-608 157 -338 164 -587 473 -661 820 -52 249 -28 588 63 865 45 139 168 383
248 494 271 377 665 630 1184 761 161 40 282 56 488 62 260 8 437 -11 721 -79
132 -31 133 -31 179 -13 99 38 114 161 27 223 -37 26 -305 113 -484 157 -297
73 -631 108 -839 88z m-2379 -1991 c-34 -117 -37 -440 -7 -582 l14 -65 -24 30
c-31 37 -195 261 -218 296 -16 26 -16 26 110 193 70 91 128 165 130 163 2 -2
0 -18 -5 -35z"/>
<path d="M5297 6725 c-313 -38 -628 -147 -865 -299 -234 -150 -447 -386 -570
-631 -56 -111 -98 -236 -129 -384 -24 -110 -27 -148 -27 -306 0 -162 3 -190
26 -276 51 -189 117 -317 239 -463 91 -108 171 -175 294 -244 159 -90 352
-148 525 -157 l95 -5 -55 16 c-149 42 -313 141 -436 262 -275 270 -396 633
-339 1017 83 559 551 985 1175 1070 393 54 775 -31 1064 -237 278 -197 472
-485 542 -805 25 -114 23 -359 -4 -529 -130 -800 -694 -1363 -1527 -1523 -376
-73 -771 -43 -1224 94 -130 39 -191 31 -240 -31 -42 -54 -17 -155 47 -188 49
-25 231 -96 352 -138 348 -118 596 -162 920 -162 217 -1 325 10 505 50 492
109 941 352 1413 767 150 132 414 405 561 582 255 305 631 831 631 882 0 37
-35 98 -126 219 -204 272 -469 563 -664 726 -116 97 -367 267 -510 343 -274
146 -569 254 -868 316 -228 47 -574 62 -805 34z m1695 -927 c169 -133 278
-285 338 -473 19 -58 24 -99 28 -240 4 -146 1 -186 -17 -278 -45 -227 -132
-419 -274 -605 -77 -102 -233 -272 -249 -272 -5 0 2 14 16 30 38 45 150 281
186 390 45 137 77 277 95 417 18 141 21 394 5 503 -28 200 -105 412 -203 558
-42 61 -40 60 75 -30z m849 -668 l27 -35 -31 -45 c-50 -74 -228 -320 -232
-320 -1 0 3 17 10 38 48 137 42 453 -11 642 -6 21 154 -168 237 -280z"/>
<path d="M4972 5791 c-40 -10 -112 -38 -160 -61 -71 -35 -103 -59 -172 -129
-144 -145 -210 -310 -210 -521 0 -325 198 -594 515 -701 60 -20 90 -24 205
-24 156 0 228 17 365 88 94 49 221 169 274 259 81 139 117 285 107 433 -7 115
-25 179 -77 285 -33 66 -60 102 -128 171 -93 93 -170 142 -292 185 -102 36
-316 43 -427 15z m563 -322 c94 -50 129 -110 123 -210 -3 -56 -9 -76 -33 -111
-101 -145 -337 -104 -385 68 -49 174 140 335 295 253z"/>
</g>
</svg>
